<svg xmlns="http://www.w3.org/2000/svg" width="24" height="25" fill="none"><g clip-path="url(#a)"><path fill="#4285F4" d="M23.766 12.7764c0-.8157-.0661-1.6358-.2072-2.4383H12.24v4.621h6.4817a5.5543 5.5543 0 0 1-2.3987 3.6465v2.9983h3.867c2.2708-2.09 3.576-5.1765 3.576-8.8275Z"/><path fill="#34A853" d="M12.2401 24.5008c3.2365 0 5.9658-1.0626 7.9544-2.8969l-3.8669-2.9984c-1.0759.732-2.4649 1.1465-4.0831 1.1465-3.1306 0-5.785-2.1121-6.7375-4.9517H1.5166v3.0909c2.0371 4.0522 6.1863 6.6096 10.7235 6.6096Z"/><path fill="#FBBC04" d="M5.5025 14.8003a7.188 7.188 0 0 1 0-4.5946V7.1148h-3.986a12.0102 12.0102 0 0 0 0 10.7764l3.986-3.0909Z"/><path fill="#EA4335" d="M12.2401 5.2497c1.7108-.0265 3.3643.6173 4.6033 1.799l3.4261-3.426C18.1001 1.5854 15.2208.4654 12.2401.5007c-4.5372 0-8.6864 2.5574-10.7235 6.614l3.986 3.091c.948-2.844 3.6069-4.9561 6.7375-4.9561Z"/></g><defs><clipPath id="a"><path fill="#fff" d="M0 .5h24v24H0z"/></clipPath></defs></svg>